<svg width="68" height="96" viewBox="0 0 68 96" fill="none" xmlns="http://www.w3.org/2000/svg">
<g clip-path="url(#clip0_49_945)">
<path fill-rule="evenodd" clip-rule="evenodd" d="M34.1276 0.155273C41.4673 0.155273 47.4181 6.10613 47.4181 13.4458C47.4181 20.7854 41.4673 26.7363 34.1276 26.7363C26.7879 26.7363 20.8371 20.7854 20.8371 13.4458C20.8371 6.10613 26.7879 0.155273 34.1276 0.155273ZM20.0379 60.5406L30.5974 71.2398L22.8155 79.0217L29.0535 85.4225L31.1793 87.6027C34.8181 92.413 29.3638 98.1234 24.6233 94.1587L10.7819 80.0303C8.68708 77.1285 8.06638 73.9785 10.2078 70.3708L20.0379 60.5406ZM48.2095 60.5406L37.6578 71.2475L45.4397 79.0294L39.2017 85.4303L37.0759 87.6104C33.4371 92.4208 38.8914 98.1311 43.6319 94.1665L57.4733 80.038C59.5681 77.1363 60.1888 73.9863 58.0474 70.3785L48.2095 60.5406ZM65.7362 57.0182C63.5716 58.5777 60.8095 57.8561 58.9707 55.9242L48.3647 44.8061V54.9234H19.8595V44.8372L9.28449 55.9242C7.4457 57.8561 4.67587 58.5777 2.51897 57.0182C0.354315 55.4587 -0.483616 52.107 1.425 50.2527L15.3517 36.7217C17.6172 34.5182 21.9776 29.3044 24.9181 29.3044H43.5776C46.3319 29.3044 50.5991 34.4794 52.8957 36.7217L66.8224 50.2527C68.7388 52.107 67.8931 55.4587 65.7362 57.0182Z" fill="white"/>
</g>
<defs>
<clipPath id="clip0_49_945">
<rect width="67.531" height="95.3379" fill="white" transform="translate(0.362061 0.155273)"/>
</clipPath>
</defs>
</svg>
