<svg width="96" height="67" viewBox="0 0 96 67" fill="none" xmlns="http://www.w3.org/2000/svg">
<g clip-path="url(#clip0_52_949)">
<path d="M18.7976 0.869341H77.539C78.475 0.862223 79.4027 1.04473 80.2662 1.40586C81.1297 1.76699 81.9111 2.29926 82.5634 2.97057C83.8918 4.36651 84.7814 6.12153 85.1221 8.01818L95.2018 58.4167C95.2785 58.8049 95.3174 59.1996 95.3181 59.5953C95.3047 60.4531 95.1203 61.2996 94.7754 62.0852C94.4306 62.8707 93.9323 63.5795 93.3099 64.1699C92.1613 65.2987 90.7093 66.0691 89.1307 66.3875C88.6204 66.4918 88.1008 66.5437 87.58 66.5425H29.6216C29.42 66.5425 29.2184 66.5425 29.0246 66.5425H4.57741C1.18907 66.1703 -0.144549 63.6737 0.0725524 60.3784L9.55523 12.3059C10.1135 10.1582 10.633 7.90963 11.292 6.10304C11.3999 5.76337 11.5374 5.43387 11.703 5.11833L11.7418 5.04079C12.0803 4.38464 12.5228 3.78764 13.0521 3.27296C14.174 2.16069 15.5881 1.38911 17.1305 1.04767C17.6784 0.929736 18.2372 0.86996 18.7976 0.869341ZM37.6854 37.3114C33.8086 33.1477 39.7478 26.9603 44.0356 30.8759C45.5476 32.256 47.7496 34.2719 49.2771 35.6443L60.4888 21.7343C64.5982 17.5009 71.0647 23.7193 67.0173 27.9838L52.7972 45.065C51.9849 45.9177 50.8742 46.4229 49.6977 46.475C48.5212 46.527 47.3702 46.1217 46.4857 45.3441C43.9813 42.956 40.2828 39.5211 37.6776 37.3191L37.6854 37.3114ZM77.539 5.91695H18.7976C18.5969 5.91719 18.3969 5.93798 18.2005 5.97898C17.6146 6.10977 17.0773 6.40262 16.6498 6.82412C16.3688 7.06938 16.1937 7.41398 16.1613 7.78557C17.3786 20.7109 24.0313 44.5222 27.0164 58.3625C27.1805 59.2945 27.6022 60.162 28.2337 60.8669C28.4197 61.0591 28.6427 61.2118 28.8892 61.3157C29.1357 61.4197 29.4006 61.4727 29.6681 61.4717H87.6885C87.8681 61.4691 88.0471 61.4509 88.2235 61.4174C88.832 61.2942 89.392 60.9981 89.8363 60.5645C90.1276 60.3048 90.3103 59.9449 90.348 59.5565V59.3627L80.2683 8.96412C80.1222 8.04553 79.7129 7.18903 79.0897 6.49847C78.9015 6.30164 78.6752 6.14515 78.4246 6.03852C78.1741 5.93188 77.9044 5.87733 77.6321 5.87818L77.539 5.91695Z" fill="white"/>
</g>
<defs>
<clipPath id="clip0_52_949">
<rect width="95.2765" height="65.6577" fill="white" transform="translate(0.0725098 0.869141)"/>
</clipPath>
</defs>
</svg>
